# xmcd CD database file
# Copyright (C) 1993-1998 Ti Kan
# 
# Track frame offsets:
#     150
#     18650
#     33727
#     51740
#     72257
#     90087
#     105862
#     119017
#     136922
#     152535
# 
# Disc length: 2224 seconds
# 
# Revision: 1
# Processed by: cddbd v1.4b41PL1 Copyright (c) Steve Scherf et al.
# Submitted via: DiscPlay 4.0.4
# 
DISCID=8108ae0a
DTITLE=Kostas - x s in moderation
DYEAR=1900
DGENRE=
TTITLE0=She's So Lonely
TTITLE1=Full Deck of Cards
TTITLE2=She Ain't My Baby Anymore
TTITLE3=If You Think
TTITLE4=Blame It On Your Heart
TTITLE5=Good Mornin' Memory
TTITLE6=That's What I'm Gonna Do
TTITLE7=I Never Saw Paris
TTITLE8=Two Timin' Two Stepper
TTITLE9=Ain't That Lonely Yet
EXTD=
EXTT0=
EXTT1=
EXTT2=
EXTT3=
EXTT4=
EXTT5=
EXTT6=
EXTT7=
EXTT8=
EXTT9=
PLAYORDER=
